<?xml version="1.0" encoding="UTF-8"?><svg id="Layer_2" xmlns="http://www.w3.org/2000/svg" viewBox="0 0 446.6 481.19"><defs><style>.cls-1,.cls-2{fill:none;}.cls-3{fill:#f89938;}.cls-4{fill:#efb8c5;}.cls-5{fill:#f15b66;}.cls-6{fill:#24303d;}.cls-2{stroke:#a95726;stroke-miterlimit:10;}</style></defs><g id="Layer_2-2"><path class="cls-5" d="m50.94,481.19s1.02-138.73,128.53-166.27,188.72,39.78,188.72,39.78c0,0,46.08,42.17,37.78,125.84l-355.03.65Z"/><circle class="cls-3" cx="95.22" cy="305.76" r="65.25"/><circle class="cls-3" cx="354.37" cy="305.76" r="65.25"/><path class="cls-4" d="m364.62,203.22c0,88.55-63.65,160.34-142.16,160.34s-142.16-71.79-142.16-160.34,63.18-51.27,141.69-51.27,142.62-37.28,142.62,51.27Z"/><ellipse class="cls-6" cx="220.13" cy="285.25" rx="27.03" ry="21.44"/><path class="cls-3" d="m83.1,152.88l-54.07,90.42s161.27,65.25,393.38,0l-74.58-106.27s-3.98-117.88-17.71-123.98C279.79-9.32,128.04.98,106.4,15.85c-14.92,10.25-23.3,137.03-23.3,137.03Z"/><path class="cls-2" d="m96.15,157.54s31.3,8.34,115.59,6.53,123.05-19.58,123.05-19.58"/><rect class="cls-1" width="446.6" height="480.86"/></g></svg>