<?xml version="1.0" encoding="UTF-8"?><svg id="Layer_2" xmlns="http://www.w3.org/2000/svg" viewBox="0 0 146.31 113.22"><defs><style>.cls-1{fill:#fff;}.cls-2{fill:#194c80;}.cls-3{stroke:#fff;stroke-width:2.6px;}.cls-3,.cls-4{fill:none;stroke-miterlimit:10;}.cls-4{stroke:#194c80;stroke-linecap:round;stroke-width:3.25px;}</style></defs><g id="Layer_1-2"><g id="Layer_2-2"><g id="Layer_1-2"><path class="cls-1" d="m3.79,76.22c-.14-1.79.41-3.56,1.53-4.96l6.4-7.88c3.13-3.98,2.76-9.67-.87-13.21l-7.37-6.97c-2.64-2.6-2.91-6.76-.64-9.68l6.4-7.88c3.13-3.98,2.76-9.67-.87-13.21-1.24-1.24-1.97-2.9-2.04-4.66-.12-1.57.23-3.14,1.02-4.51.51-.83,1.43-1.84,2.89-1.97l85.16,6.99c2.21.18,4.6.27,7.52.27,23.31.07,42.16,19.03,42.08,42.35-.07,21.08-15.68,38.89-36.57,41.7-2.9.39-5.26.79-7.42,1.25l-83.51,18.05c-2.68.11-4.54-2.96-4.73-5.91-.16-1.75.35-3.49,1.42-4.89,3.13-3.98,2.76-9.67-.87-13.21l-7.37-6.97c-1.29-1.24-2.06-2.93-2.16-4.72Z"/><path class="cls-2" d="m143.62,48.1c1.41,21.46-14.04,40.35-35.36,43.23-2.94.39-5.33.8-7.53,1.27l-83.39,18.03c-1.79-.02-3.13-2.4-3.28-4.7-.14-1.42.27-2.84,1.13-3.98,3.56-4.5,3.14-10.97-.98-14.97l-7.37-6.97c-2.14-2.13-2.37-5.53-.52-7.92l6.4-7.88c3.56-4.5,3.14-10.97-.98-14.97l-7.37-6.97c-2.14-2.13-2.37-5.53-.52-7.92l6.4-7.88c3.56-4.5,3.14-10.97-.98-14.97-1.01-1.02-1.59-2.37-1.64-3.8-.15-2.3.87-4.84,2.64-5.09l85.03,6.98c2.24.18,4.66.27,7.63.28,21.51.07,39.29,16.78,40.7,38.24m2.59-.17h0c-1.5-22.83-20.41-40.59-43.29-40.66-2.48,0-4.95-.07-7.42-.27L10.25,0c-3.47.23-5.46,4.07-5.22,7.87.09,2.08.97,4.05,2.45,5.52h0c3.13,3.06,3.46,8,.75,11.44l-6.4,7.88c-2.7,3.45-2.38,8.38.75,11.44l7.37,6.97c3.13,3.06,3.46,8,.75,11.44l-6.4,7.88c-2.7,3.45-2.38,8.38.75,11.44l7.37,6.97c3.13,3.06,3.46,8,.75,11.44h0c-1.28,1.65-1.89,3.71-1.71,5.79.25,3.8,2.72,7.35,6.2,7.12l83.62-18.07c2.42-.52,4.87-.91,7.32-1.24,22.67-3.06,39.1-23.15,37.6-45.97Z"/><path class="cls-4" d="m106.66,55.08c3.76-.25,7,2.6,7.25,6.36h0c.25,3.76-2.6,7-6.36,7.25h0"/><path class="cls-4" d="m104.64,24.3c3.76-.25,7,2.6,7.25,6.36h0c.25,3.76-2.6,7-6.36,7.25h0"/><path class="cls-4" d="m90.31,53.88c-3.76.25-7-2.6-7.25-6.36h0c-.25-3.76,2.6-7,6.36-7.25"/><path class="cls-2" d="m33.72,50.56l4.78-6.23c.45-.58,1.18-.86,1.9-.72l19.39,3.68,4.29-2.21c.42-.21.92-.14,1.26.18l1.77,1.71c.2.19.32.44.33.72l.26,3.94c.02.27-.07.54-.24.75l-1.54,1.92c-.29.37-.78.5-1.22.35l-4.54-1.63-18.74,6.18c-.7.23-1.46.05-1.98-.47l-5.56-5.55c-.7-.7-.78-1.82-.17-2.61Z"/><line class="cls-3" x1="59.27" y1="43.86" x2="60.23" y2="58.45"/></g></g></g></svg>