<?xml version="1.0" encoding="UTF-8"?>
<svg id="Layer_2" xmlns="http://www.w3.org/2000/svg" xmlns:xlink="http://www.w3.org/1999/xlink" viewBox="0 0 445.8 481.12">
  <defs>
    <style>
      .cls-1 {
        filter: url(#drop-shadow-1);
      }

      .cls-2 {
        fill: #ee3c96;
      }

      .cls-3 {
        fill: #231f20;
      }

      .cls-4 {
        fill: #7a57a4;
      }

      .cls-5 {
        fill: #76cede;
      }

      .cls-6 {
        fill: #24303d;
      }

      .cls-7 {
        fill: #fff;
      }

      .cls-8 {
        fill: none;
        stroke: #a95726;
        stroke-miterlimit: 10;
      }

      .cls-9 {
        fill: #f15b66;
      }

      .cls-10 {
        fill: #efb8c5;
      }

      .cls-11 {
        fill: #f89938;
      }
    </style>
    <filter id="drop-shadow-1" x="191.17" y="54.7" width="51.06" height="70.13" filterUnits="userSpaceOnUse">
      <feOffset dx="1.11" dy=".74"/>
      <feGaussianBlur result="blur" stdDeviation="0"/>
      <feFlood flood-color="#231f20" flood-opacity=".8"/>
      <feComposite in2="blur" operator="in"/>
      <feComposite in="SourceGraphic"/>
    </filter>
  </defs>
  <g id="Layer_2-2" data-name="Layer_2">
    <path class="cls-9" d="M51.39,481.12s1.02-138.73,128.53-166.27,188.72,39.78,188.72,39.78c0,0,46.08,42.17,37.78,125.84l-355.03.65Z"/>
    <circle class="cls-11" cx="95.67" cy="305.69" r="65.25"/>
    <circle class="cls-11" cx="354.82" cy="305.69" r="65.25"/>
    <path class="cls-10" d="M365.07,203.15c0,88.55-63.65,160.34-142.16,160.34s-142.16-71.79-142.16-160.34,63.18-51.27,141.69-51.27,142.62-37.28,142.62,51.27Z"/>
    <ellipse class="cls-6" cx="220.58" cy="285.18" rx="27.03" ry="21.44"/>
    <path class="cls-11" d="M83.55,152.81l-54.07,90.42s161.27,65.25,393.38,0l-74.58-106.27s-3.98-117.88-17.71-123.98C280.24-9.39,128.49.91,106.86,15.78c-14.92,10.25-23.3,137.03-23.3,137.03Z"/>
    <path class="cls-8" d="M96.6,157.47s31.3,8.34,115.59,6.53,123.05-19.58,123.05-19.58"/>
    <circle class="cls-7" cx="214.62" cy="95.01" r="50.8"/>
    <g class="cls-1">
      <path class="cls-2" d="M217.01,93.24l12.92,25.54-3.5,1.75-12.11-17.84-2.39.16-4.62,18.32-4.62-2.07,6.22-25.36c.1-.4.13-.81.09-1.22l-.9-9.58-3.05,9.02c-.19.56-.52,1.07-.95,1.48l-6.51,6.22-1.43-4.78,5.2-4.38c.56-.47.96-1.1,1.17-1.8l2.96-10.21c.16-.54.44-1.04.81-1.46l.11-.13c.58-.64,1.37-1.06,2.23-1.17l2.18-.3.32-3.82h5.26l-.48,3.66,3.12.11c.87.03,1.69.37,2.34.94h0c.39.35.71.79.92,1.27l3.91,9.01c.62,1.42,2.05,2.3,3.59,2.21l5.87-.33-.32,5.26-8.29.13c-1.37.02-2.64-.72-3.29-1.92l-6.42-11.75-.73,11.1c-.04.66.09,1.32.39,1.91Z"/>
      <circle class="cls-11" cx="204.69" cy="73.46" r="4"/>
      <circle class="cls-11" cx="220.07" cy="73.46" r="4"/>
      <ellipse class="cls-10" cx="212.49" cy="67.14" rx="7.16" ry="9.06"/>
      <ellipse class="cls-10" cx="237.51" cy="90.98" rx="3.67" ry="3.08" transform="translate(-16.35 75.43) rotate(-17.46)"/>
      <ellipse class="cls-10" cx="194.79" cy="97.71" rx="3.67" ry="3.08" transform="translate(-20.34 62.93) rotate(-17.46)"/>
      <path class="cls-3" d="M226.43,120.53s.18,3.7,2.07,3.07c1.24-.41,4.17-2.08,6.07-3.19,1.15-.67,1.37-2.28.4-3.18-.61-.56-1.43-.89-2.46-.37-2.53,1.26-6.08,3.67-6.08,3.67Z"/>
      <path class="cls-3" d="M207.82,120.95s-.18,3.7-2.07,3.07c-1.24-.41-4.17-2.08-6.07-3.19-1.15-.67-1.37-2.28-.4-3.18.61-.56,1.43-.89,2.46-.37,2.53,1.26,6.08,3.67,6.08,3.67Z"/>
      <path class="cls-11" d="M204.46,63.58l-3.14,5.25s9.37,3.79,22.85,0l-4.33-6.17s-.23-6.85-1.03-7.2c-2.92-1.3-11.74-.7-12.99.16-.87.6-1.35,7.96-1.35,7.96Z"/>
    </g>
    <g>
      <path class="cls-5" d="M421.68,76.01l12.92,25.54-3.5,1.75-12.11-17.84-2.39.16-4.62,18.32-4.62-2.07,6.22-25.36c.1-.4.13-.81.09-1.22l-.9-9.58-3.05,9.02c-.19.56-.52,1.07-.95,1.48l-6.51,6.22-1.43-4.78,5.2-4.38c.56-.47.96-1.1,1.17-1.8l2.96-10.21c.16-.54.44-1.04.81-1.46l.11-.13c.58-.64,1.37-1.06,2.23-1.17l2.18-.3.32-3.82h5.26l-.48,3.66,3.12.11c.87.03,1.69.37,2.34.94h0c.39.35.71.79.92,1.27l3.91,9.01c.62,1.42,2.05,2.3,3.59,2.21l5.87-.33-.32,5.26-8.29.13c-1.37.02-2.64-.72-3.29-1.92l-6.42-11.75-.73,11.1c-.04.66.09,1.32.39,1.91Z"/>
      <circle class="cls-11" cx="409.37" cy="56.22" r="4"/>
      <circle class="cls-11" cx="424.75" cy="56.22" r="4"/>
      <ellipse class="cls-10" cx="417.16" cy="49.9" rx="7.16" ry="9.06"/>
      <ellipse class="cls-10" cx="442.19" cy="73.75" rx="3.67" ry="3.08" transform="translate(-1.76 136.03) rotate(-17.46)"/>
      <ellipse class="cls-10" cx="399.46" cy="80.47" rx="3.67" ry="3.08" transform="translate(-5.74 123.53) rotate(-17.46)"/>
      <path class="cls-3" d="M431.1,103.3s.18,3.7,2.07,3.07c1.24-.41,4.17-2.08,6.07-3.19,1.15-.67,1.37-2.28.4-3.18-.61-.56-1.43-.89-2.46-.37-2.53,1.26-6.08,3.67-6.08,3.67Z"/>
      <path class="cls-3" d="M412.5,103.72s-.18,3.7-2.07,3.07c-1.24-.41-4.17-2.08-6.07-3.19-1.15-.67-1.37-2.28-.4-3.18.61-.56,1.43-.89,2.46-.37,2.53,1.26,6.08,3.67,6.08,3.67Z"/>
      <path class="cls-11" d="M409.14,46.35l-3.14,5.25s9.37,3.79,22.85,0l-4.33-6.17s-.23-6.85-1.03-7.2c-2.92-1.3-11.74-.7-12.99.16-.87.6-1.35,7.96-1.35,7.96Z"/>
    </g>
    <g>
      <path class="cls-4" d="M25.84,76.01l12.92,25.54-3.5,1.75-12.11-17.84-2.39.16-4.62,18.32-4.62-2.07,6.22-25.36c.1-.4.13-.81.09-1.22l-.9-9.58-3.05,9.02c-.19.56-.52,1.07-.95,1.48l-6.51,6.22-1.43-4.78,5.2-4.38c.56-.47.96-1.1,1.17-1.8l2.96-10.21c.16-.54.44-1.04.81-1.46l.11-.13c.58-.64,1.37-1.06,2.23-1.17l2.18-.3.32-3.82h5.26l-.48,3.66,3.12.11c.87.03,1.69.37,2.34.94h0c.39.35.71.79.92,1.27l3.91,9.01c.62,1.42,2.05,2.3,3.59,2.21l5.87-.33-.32,5.26-8.29.13c-1.37.02-2.64-.72-3.29-1.92l-6.42-11.75-.73,11.1c-.04.66.09,1.32.39,1.91Z"/>
      <circle class="cls-11" cx="13.52" cy="56.22" r="4"/>
      <circle class="cls-11" cx="28.9" cy="56.22" r="4"/>
      <ellipse class="cls-10" cx="21.32" cy="49.9" rx="7.16" ry="9.06"/>
      <ellipse class="cls-10" cx="46.34" cy="73.75" rx="3.67" ry="3.08" transform="translate(-19.99 17.3) rotate(-17.46)"/>
      <ellipse class="cls-10" cx="3.62" cy="80.47" rx="3.67" ry="3.08" transform="translate(-23.97 4.79) rotate(-17.46)"/>
      <path class="cls-3" d="M35.26,103.3s.18,3.7,2.07,3.07c1.24-.41,4.17-2.08,6.07-3.19,1.15-.67,1.37-2.28.4-3.18-.61-.56-1.43-.89-2.46-.37-2.53,1.26-6.08,3.67-6.08,3.67Z"/>
      <path class="cls-3" d="M16.65,103.72s-.18,3.7-2.07,3.07c-1.24-.41-4.17-2.08-6.07-3.19-1.15-.67-1.37-2.28-.4-3.18.61-.56,1.43-.89,2.46-.37,2.53,1.26,6.08,3.67,6.08,3.67Z"/>
      <path class="cls-11" d="M13.29,46.35l-3.14,5.25s9.37,3.79,22.85,0l-4.33-6.17s-.23-6.85-1.03-7.2c-2.92-1.3-11.74-.7-12.99.16-.87.6-1.35,7.96-1.35,7.96Z"/>
    </g>
  </g>
</svg>