<?xml version="1.0" encoding="UTF-8"?><svg id="Layer_2" xmlns="http://www.w3.org/2000/svg" xmlns:xlink="http://www.w3.org/1999/xlink" viewBox="0 0 1282.18 719.12"><defs><style>.cls-1{fill:none;}.cls-2{clip-path:url(#clippath);}.cls-3{fill:#f89938;}</style><clipPath id="clippath"><rect class="cls-1" width="1282.18" height="719.12"/></clipPath></defs><g id="Layer_1-2"><g class="cls-2"><path class="cls-3" d="m1360.83,815.18c.38,4.87,1.21,10.59.02,15.39-1.01,4.03-4.13,5.48-7.91,6.82-9.57,3.41-20.08,3.49-30.08,4.44-15.94,1.51-31.82,2.93-47.83,3.59-34.67,1.43-69.38,1.15-104.03,3.18-70.6,4.13-141,10.38-211.71,12.54-71.5,2.17-143.04,2-214.56.98-142.54-2.04-285.11-5.57-427.53-11.56-70.88-2.99-141.65-7.23-212.46-11.34-67.63-3.92-135.35-6.01-202.25-17.57-10.35-1.79-20.68-3.92-30.69-7.08,2.58-2.45,5.69-4.54,8.21-6.32,5.89-4.19,12.03-8.02,17.79-12.4,13.44-10.22,18.95-23.69,25.28-38.92,3.55-8.53,7.58-16.77,14.06-23.47,6.33-6.54,13.84-11.73,20.85-17.49,6.23-5.12,12.28-10.8,16.32-17.87,3.37-5.91,5.12-12.48,6.64-19.06,13.16-15.27,25.34-31.47,39.71-45.65,15.66-15.45,33.71-26.16,54.88-32.22,47.02-13.45,96.25-8.59,144.12-3.61,49.52,5.16,101.29,9.24,148.17-11.06,21.98-9.51,41.58-23.33,61.68-36.17,21.41-13.67,44.24-25.07,67.72-34.73,23.46-9.65,47.53-17.6,71.66-25.38,12.48-4.02,25.18-8.07,38.23-9.71,12.31-1.54,24.75-.62,37.1-1.43,24.58-1.61,48.96-11.24,71.9-19.66,23.55-8.64,46.7-18.47,69.25-29.45,43.82-21.35,80-53.53,120.83-79.61,39.61-25.29,83.63-44.42,129.81-53.66,23.24-4.65,47.01-6.51,70.69-5.18,24.7,1.39,47.57,7.6,71.1,14.69,23.9,7.2,48.35,11.43,73.17,13.85,21.81,2.13,43.79,4.82,65.73,3.12,8.42-.65,16.79-1.92,24.88-4.28,2.99,6.36,3.67,14.85,4.35,21.17,1.13,10.47,1.43,21.01,1.61,31.54.47,28.82,2.25,57.62,2.95,86.45,1.73,70.91,3.02,141.86,5.4,212.76,1.17,34.97,2.35,69.94,2.73,104.93.14,13.31,1.18,26.19,2.21,39.43Z"/></g></g></svg>